<svg xmlns="http://www.w3.org/2000/svg" width="24" height="24" viewBox="0 0 24 24">
  <g id="Favoritos" transform="translate(22670 20069)">
    <rect id="Rectángulo_152250" data-name="Rectángulo 152250" width="24" height="24" transform="translate(-22670 -20069)" fill="none"/>
    <path id="heartEmpty" d="M12.873,3.791l-.874.9-.874-.9A5.829,5.829,0,0,0,5.974,2.079,5.944,5.944,0,0,0,1.621,5.373l-.109.236A6.224,6.224,0,0,0,2.548,12.2l8.89,9.56a.766.766,0,0,0,1.123,0l8.722-9.381a6.208,6.208,0,0,0,1.095-7l-.124-.242a5.942,5.942,0,0,0-4.228-3.052A5.83,5.83,0,0,0,12.873,3.791Zm4.9-.194A4.4,4.4,0,0,1,20.9,5.852l.108.21.1.211a4.673,4.673,0,0,1-.773,4.871L12,20.1,3.84,11.328a4.677,4.677,0,0,1-.925-5.093l.094-.205A4.4,4.4,0,0,1,6.226,3.6a4.3,4.3,0,0,1,3.8,1.267l1.425,1.468a.766.766,0,0,0,1.1,0l1.424-1.468A4.3,4.3,0,0,1,17.772,3.6Z" transform="translate(-22670 -20069)"/>
  </g>
</svg>
