<svg xmlns="http://www.w3.org/2000/svg" width="24" height="24" viewBox="0 0 24 24">
  <g id="Favoritos_relleno" data-name="Favoritos relleno" transform="translate(23330 20119)">
    <rect id="Rectángulo_152211" data-name="Rectángulo 152211" width="24" height="24" transform="translate(-23330 -20119)" fill="none"/>
    <path id="heartFilled" d="M12.873,3.791l-.874.9-.874-.9A5.829,5.829,0,0,0,5.974,2.079,5.944,5.944,0,0,0,1.621,5.373l-.109.236A6.224,6.224,0,0,0,2.548,12.2l8.89,9.56a.766.766,0,0,0,1.123,0l8.722-9.381a6.208,6.208,0,0,0,1.095-7l-.124-.242a5.942,5.942,0,0,0-4.228-3.052A5.83,5.83,0,0,0,12.873,3.791Z" transform="translate(-23330 -20119)"/>
  </g>
</svg>
